<svg width="22" height="22" viewBox="0 0 22 22" fill="none" xmlns="http://www.w3.org/2000/svg">
<path fill-rule="evenodd" clip-rule="evenodd" d="M19 -0.000244141C20.6569 -0.000244141 22 1.34291 22 2.99976V18.9998C22 20.6567 20.6569 21.9998 19 21.9998H3C1.34315 21.9998 0 20.6567 0 18.9998V2.99976C0 1.34291 1.34315 -0.000244141 3 -0.000244141H19ZM19 1.99976C19.5523 1.99976 20 2.44748 20 2.99976V18.9998C20 19.5521 19.5523 19.9998 19 19.9998H14V12.9997H16.0762C16.5066 12.9997 16.8887 12.7243 17.0249 12.3159L17.4679 10.9869C17.6298 10.5012 17.2683 9.99966 16.7564 9.99966H14V7.99968C14 7.49968 14.5 6.99968 15 6.99968H17C17.5523 6.99968 18 6.55196 18 5.99968V5.31369C18 4.99067 17.7937 4.70106 17.4813 4.61863C16.1705 4.27271 15 4.27271 15 4.27271C12.5 4.27271 11 5.99968 11 7.49968V9.99966H9C8.44772 9.99966 8 10.4474 8 10.9997V11.9997C8 12.552 8.44771 12.9997 9 12.9997H11V19.9998H3C2.44772 19.9998 2 19.5521 2 18.9998V2.99976C2 2.44748 2.44772 1.99976 3 1.99976H19Z" fill="#363636"/>
</svg>
