<svg width="18" height="38" viewBox="0 0 23 42" fill="none" xmlns="http://www.w3.org/2000/svg">
<path d="M22.998 20.4336C21.2758 25.3083 22.998 30.2911 21.7433 33.6882C19.9472 38.3371 14.9282 38.6955 12.4186 41.7318C10.5316 26.5184 17.4377 28.7545 22.998 20.4336ZM16.6652 31.5871C16.3847 32.1026 15.9074 32.4879 15.5777 32.9886C15.2385 33.5425 14.9777 34.1406 14.8027 34.7658C15.2962 33.9629 16.0536 33.3557 16.9456 33.0476C17.3122 32.9347 17.4377 33.4697 17.1031 33.6047C16.4341 33.9274 15.8865 34.4556 15.5408 35.1118C16.4757 34.5866 17.4156 34.0171 17.8806 32.807C18.4514 31.2705 17.6641 29 18.4514 26.7811C16.1829 30.1782 13.4225 29.7143 13.4913 34.5718C13.9047 33.2709 14.9183 31.0962 16.3921 31.1011C16.4487 31.1018 16.5041 31.1173 16.5528 31.1462C16.6015 31.175 16.6417 31.2161 16.6694 31.2654C16.697 31.3146 16.7112 31.3703 16.7105 31.4268C16.7098 31.4833 16.6941 31.5386 16.6652 31.5871Z" fill="white"/>
<path d="M0.586763 14.2871C6.1471 22.6081 13.0483 20.372 11.1662 35.5779C8.65663 32.5367 3.63265 32.1784 1.84153 27.5294C0.591683 24.1544 2.31145 19.1643 0.586763 14.2871ZM6.01916 27.0999C6.48416 28.3075 7.42401 28.877 8.35893 29.4023C8.01045 28.7476 7.46131 28.2213 6.7917 27.9001C6.46202 27.7602 6.58011 27.23 6.94916 27.3429C7.84265 27.6484 8.60079 28.2563 9.09211 29.0611C8.91703 28.4348 8.65712 27.8353 8.31957 27.2791C7.9948 26.7882 7.51258 26.3979 7.22964 25.8824C7.20063 25.8328 7.18526 25.7764 7.18509 25.719C7.18491 25.6615 7.19993 25.6051 7.22864 25.5552C7.25734 25.5054 7.29871 25.4641 7.34857 25.4353C7.39842 25.4066 7.455 25.3915 7.51258 25.3915C8.98877 25.3915 9.99505 27.5589 10.4084 28.8623C10.4822 24.0047 7.71679 24.4686 5.44837 21.0666C6.23567 23.2782 5.45575 25.5511 6.01916 27.0999Z" fill="white"/>
<path d="M22.998 6.53906C21.2758 11.4163 22.998 16.3966 21.7433 19.7765C19.9472 24.4401 14.9282 24.7887 12.4186 27.8274C10.5316 12.619 17.4377 14.8576 22.998 6.53906ZM16.6652 17.6508C16.3847 18.1614 15.9074 18.5517 15.5777 19.045C15.2397 19.6004 14.979 20.1991 14.8027 20.8246C15.2962 20.0217 16.0536 19.4145 16.9456 19.1064C17.3122 18.9984 17.4377 19.5261 17.1031 19.666C16.4351 19.9901 15.8879 20.5179 15.5408 21.1731C16.4757 20.6479 17.4156 20.0759 17.8806 18.8708C18.4514 17.3293 17.6641 15.0637 18.4514 12.8399C16.1829 16.2346 13.4225 15.7854 13.4913 20.6356C13.9047 19.3298 14.9183 17.155 16.3921 17.1648C16.4487 17.1655 16.5041 17.1811 16.5528 17.2099C16.6015 17.2387 16.6417 17.2799 16.6694 17.3291C16.697 17.3784 16.7112 17.4341 16.7105 17.4905C16.7098 17.547 16.6941 17.6023 16.6652 17.6508Z" fill="white"/>
<path d="M0.586763 0.392578C6.1471 8.71107 13.0483 6.47743 11.1662 21.681C8.65663 18.6422 3.63265 18.2838 1.84153 13.63C0.591683 10.2525 2.31145 5.26978 0.586763 0.392578ZM6.01916 13.2152C6.48416 14.4179 7.42401 14.9923 8.35893 15.5176C8.01021 14.8648 7.46331 14.339 6.79662 14.0154C6.46202 13.8755 6.58011 13.3453 6.94916 13.4557C7.84094 13.7644 8.59813 14.3715 9.09211 15.1739C8.91868 14.5486 8.65866 13.9505 8.31957 13.3968C7.9948 12.9059 7.51258 12.5181 7.22964 12.0002C7.20063 11.9505 7.18526 11.8942 7.18509 11.8367C7.18491 11.7793 7.19993 11.7228 7.22864 11.673C7.25734 11.6232 7.29871 11.5818 7.34857 11.5531C7.39842 11.5243 7.455 11.5092 7.51258 11.5093C8.98877 11.5093 9.99505 13.6766 10.4108 14.9825C10.4822 10.1224 7.72171 10.5864 5.44837 7.18434C6.23567 9.40571 5.45575 11.6737 6.01916 13.2152Z" fill="white"/>
</svg>
