<svg width="43" height="44" viewBox="0 0 43 44" fill="none" xmlns="http://www.w3.org/2000/svg">
<path d="M21.4998 3.66699C17.7009 3.67088 14.0588 5.21783 11.3739 7.96794C8.68895 10.7181 7.1808 14.4464 7.1808 18.3337C7.13541 23.0473 8.47667 27.666 11.0303 31.5894C13.5839 35.5128 17.2317 38.5596 21.4998 40.3337C25.7665 38.5584 29.4129 35.5112 31.9651 31.5879C34.5174 27.6645 35.8576 23.0465 35.8116 18.3337C35.8116 14.4476 34.3045 10.7204 31.6211 7.97053C28.9377 5.22063 25.2975 3.67282 21.4998 3.66699ZM21.4998 23.8337C20.4367 23.8337 19.3975 23.5111 18.5136 22.9067C17.6297 22.3024 16.9408 21.4434 16.5339 20.4384C16.1271 19.4334 16.0207 18.3276 16.2281 17.2607C16.4355 16.1938 16.9474 15.2138 17.6991 14.4446C18.4508 13.6754 19.4085 13.1516 20.4512 12.9393C21.4938 12.7271 22.5746 12.836 23.5567 13.2523C24.5389 13.6686 25.3783 14.3736 25.969 15.278C26.5596 16.1825 26.8748 17.2459 26.8748 18.3337C26.8748 19.7923 26.3085 21.1913 25.3005 22.2227C24.2925 23.2542 22.9253 23.8337 21.4998 23.8337Z" fill="#FB9500"/>
</svg>
