<svg width="25" height="25" viewBox="0 0 25 25" fill="none" xmlns="http://www.w3.org/2000/svg">
<path fill-rule="evenodd" clip-rule="evenodd" d="M12.5 18.7498C15.9518 18.7498 18.75 15.9515 18.75 12.4998C18.75 9.04797 15.9518 6.24976 12.5 6.24976C9.04822 6.24976 6.25 9.04797 6.25 12.4998C6.25 15.9515 9.04822 18.7498 12.5 18.7498ZM12.5 16.6664C14.8011 16.6664 16.6667 14.8009 16.6667 12.4998C16.6667 10.1986 14.8011 8.33309 12.5 8.33309C10.1988 8.33309 8.33333 10.1986 8.33333 12.4998C8.33333 14.8009 10.1988 16.6664 12.5 16.6664Z" fill="#363636"/>
<path d="M18.7507 5.20874C18.1753 5.20874 17.709 5.67512 17.709 6.25041C17.709 6.8257 18.1753 7.29207 18.7507 7.29207C19.326 7.29207 19.7923 6.8257 19.7923 6.25041C19.7923 5.67512 19.326 5.20874 18.7507 5.20874Z" fill="#363636"/>
<path fill-rule="evenodd" clip-rule="evenodd" d="M1.72222 4.45333C1.04102 5.79028 1.04102 7.54045 1.04102 11.0408V13.9574C1.04102 17.4578 1.04102 19.208 1.72222 20.5448C2.32143 21.7209 3.27756 22.677 4.45358 23.2762C5.79053 23.9574 7.54069 23.9574 11.041 23.9574H13.9577C17.458 23.9574 19.2082 23.9574 20.5451 23.2762C21.7211 22.677 22.6773 21.7209 23.2764 20.5448C23.9577 19.208 23.9577 17.4578 23.9577 13.9574V11.0408C23.9577 7.54045 23.9577 5.79028 23.2764 4.45333C22.6773 3.27731 21.7211 2.32119 20.5451 1.72198C19.2082 1.04077 17.458 1.04077 13.9577 1.04077H11.041C7.54069 1.04077 5.79053 1.04077 4.45358 1.72198C3.27756 2.32119 2.32143 3.27731 1.72222 4.45333ZM13.9577 3.1241H11.041C9.25647 3.1241 8.04336 3.12573 7.10568 3.20233C6.19231 3.27696 5.72522 3.41222 5.39939 3.57824C4.61538 3.97772 3.97796 4.61514 3.57848 5.39915C3.41246 5.72498 3.2772 6.19206 3.20258 7.10544C3.12597 8.04312 3.12435 9.25623 3.12435 11.0408V13.9574C3.12435 15.742 3.12597 16.955 3.20258 17.8927C3.2772 18.8062 3.41246 19.2733 3.57848 19.5991C3.97796 20.3831 4.61538 21.0205 5.39939 21.4199C5.72522 21.586 6.19231 21.7213 7.10568 21.7959C8.04336 21.8724 9.25647 21.8741 11.041 21.8741H13.9577C15.7423 21.8741 16.9553 21.8724 17.893 21.7959C18.8064 21.7213 19.2735 21.586 19.5993 21.4199C20.3833 21.0205 21.0207 20.3831 21.4202 19.5991C21.5862 19.2733 21.7215 18.8062 21.7961 17.8927C21.8727 16.955 21.8743 15.742 21.8743 13.9574V11.0408C21.8743 9.25623 21.8727 8.04312 21.7961 7.10544C21.7215 6.19206 21.5862 5.72498 21.4202 5.39915C21.0207 4.61514 20.3833 3.97772 19.5993 3.57824C19.2735 3.41222 18.8064 3.27696 17.893 3.20233C16.9553 3.12573 15.7423 3.1241 13.9577 3.1241Z" fill="#363636"/>
</svg>
