<svg width="304" height="38" viewBox="0 0 304 38" fill="none" xmlns="http://www.w3.org/2000/svg">
<path d="M107.822 32.2806V13.665H115.448C116.703 13.6238 117.954 13.8451 119.119 14.315C120.002 14.6788 120.76 15.292 121.301 16.0796C121.783 16.818 122.034 17.6834 122.022 18.5651C122.047 19.253 121.883 19.9346 121.545 20.5346C121.232 21.0577 120.793 21.4949 120.269 21.8069C119.723 22.129 119.131 22.363 118.512 22.5001V22.6813C119.251 22.7253 119.968 22.9434 120.606 23.3179C121.244 23.6924 121.785 24.2126 122.183 24.8359C122.635 25.573 122.862 26.4258 122.837 27.2899C122.848 28.1989 122.588 29.0904 122.089 29.8503C121.515 30.662 120.713 31.2846 119.784 31.6385C118.508 32.1165 117.149 32.3348 115.786 32.2806H107.822ZM110.973 21.7202H115.172C115.826 21.7304 116.475 21.6057 117.078 21.3539C117.612 21.1385 118.079 20.7866 118.433 20.3337C118.775 19.8806 118.952 19.3252 118.938 18.7581C118.942 18.3884 118.862 18.0224 118.706 17.6876C118.549 17.3527 118.318 17.0575 118.032 16.8241C117.43 16.2989 116.511 16.0363 115.274 16.0363H110.961L110.973 21.7202ZM110.973 29.8699H115.499C117.004 29.8699 118.081 29.6073 118.733 29.0821C119.04 28.8548 119.289 28.5577 119.459 28.2153C119.629 27.8728 119.715 27.4949 119.71 27.1127C119.705 26.5478 119.531 25.9974 119.209 25.5331C118.854 25.0168 118.363 24.6081 117.791 24.3514C117.105 24.0481 116.36 23.9001 115.609 23.9182H110.961L110.973 29.8699Z" fill="#FB9500"/>
<path d="M145.766 16.4734C145.19 15.5583 144.351 14.8388 143.359 14.4094C142.088 13.8733 140.716 13.6193 139.337 13.6649H131.936V32.2805H135.087V16.0795H139.026C139.883 16.0422 140.739 16.1761 141.543 16.4734C142.131 16.7027 142.627 17.1177 142.957 17.6551C143.27 18.2123 143.427 18.8438 143.41 19.4827C143.433 20.115 143.279 20.7411 142.965 21.2907C142.635 21.814 142.14 22.213 141.559 22.4252C140.762 22.7147 139.917 22.8485 139.07 22.8191H136.706V25.2336L141.071 32.2765H144.651L140.172 25.21H140.133C141.242 25.1765 142.335 24.9416 143.359 24.5167C144.346 24.1072 145.183 23.4046 145.758 22.5039C146.298 21.5975 146.571 20.5571 146.546 19.5024C146.57 18.4401 146.3 17.3917 145.766 16.4734Z" fill="#FB9500"/>
<path d="M155.817 32.2806V13.665H168.875V16.0796H158.961V21.7517H168.194V24.1585H158.961V29.866H168.997V32.2845L155.817 32.2806Z" fill="#FB9500"/>
<path d="M212.606 32.2802H205.862V13.6646H212.819C214.635 13.617 216.436 13.9989 218.077 14.7793C219.497 15.4778 220.673 16.5902 221.449 17.9699C222.223 19.5182 222.626 21.2255 222.626 22.9566C222.626 24.6878 222.223 26.3951 221.449 27.9434C220.658 29.3358 219.465 30.4563 218.026 31.1576C216.332 31.9501 214.475 32.3345 212.606 32.2802ZM209.006 29.8262H212.433C213.797 29.8742 215.154 29.5975 216.391 29.0187C217.41 28.5156 218.239 27.6962 218.755 26.6829C219.268 25.5069 219.532 24.2377 219.532 22.9547C219.532 21.6716 219.268 20.4024 218.755 19.2264C218.252 18.2265 217.441 17.4145 216.442 16.9103C215.251 16.3475 213.942 16.0774 212.626 16.1225H209.006V29.8262Z" fill="#FB9500"/>
<path d="M235.189 32.2806L229.415 13.6651H232.719L236.776 28.0817H236.969L241.188 14.898H244.465L248.684 28.0856H248.881L252.926 13.6611H256.243L250.457 32.2767H247.305L242.921 19.5696H242.76L238.376 32.2767L235.189 32.2806Z" fill="#FB9500"/>
<path d="M285.108 13.665H288.677L294.117 22.1259H294.341L299.781 13.665H303.354L295.795 24.9738V32.2806H292.663V24.9738L285.108 13.665Z" fill="#FB9500"/>
<path d="M272.61 13.665H268.979L261.483 32.2806H264.819L270.716 17.0486H270.881L276.77 32.2806H280.106L272.61 13.665Z" fill="#FB9500"/>
<path d="M268.594 26.2104L267.653 28.8732H273.932L272.998 26.2223L268.594 26.2104Z" fill="#FB9500"/>
<path d="M189.421 13.665H185.793L178.297 32.2806H181.634L187.53 17.0486H187.692L193.585 32.2806H196.917L189.421 13.665Z" fill="#FB9500"/>
<path d="M185.401 26.1909L184.463 28.8537H190.738L189.805 26.2027L185.401 26.1909Z" fill="#FB9500"/>
<path d="M125.659 4.57995C125.659 4.57995 100.767 -1.69707 79.2224 0.602744C58.0678 2.86036 42.7815 14.7946 51.084 22.8782C51.084 22.8782 45.3002 10.3427 83.4185 3.58828C92.5598 1.96892 107.886 2.55178 125.659 4.57995Z" fill="#FB9500"/>
<path d="M92.3792 10.4512C92.3792 10.4512 96.8627 20.4469 78.459 27.6971C74.2602 29.3508 68.3524 30.4717 63.8768 31.0546C52.3751 32.5526 21.0269 36.1711 11.0259 37.3843C11.0259 37.3843 50.3363 35.8915 62.3708 35.1768C66.232 34.9474 72.7463 34.019 76.3833 33.3069C80.363 32.4815 84.161 30.9447 87.5949 28.7706C94.2728 24.5032 99.2311 14.4495 92.3792 10.4512Z" fill="#FB9500"/>
<path d="M133.024 6.01772C131.513 5.83046 122.802 4.85463 111.369 5.69596C111.011 5.6669 110.657 5.5988 110.314 5.49288C109.885 5.35636 109.443 5.2679 108.995 5.22914C109.069 5.17639 109.145 5.12891 109.222 5.08144C109.298 5.03397 109.367 4.99441 109.441 4.95221L109.652 4.83616L109.858 4.73858C109.921 4.70693 109.987 4.67792 110.053 4.65155L110.24 4.5777L110.419 4.51704L110.588 4.46693C110.641 4.4511 110.694 4.43792 110.746 4.42737L110.894 4.39308L111.029 4.36934C111.071 4.36934 111.11 4.35616 111.153 4.35352L111.263 4.34033H111.364H111.448H111.64H111.725H112.495H112.574H112.656H112.74H112.827H112.92H113.012H113.109H113.21H113.31H113.415H113.524H113.634H113.748H113.864H113.982H114.104H114.228H114.354H114.484H114.615H114.75H114.884H115.024H115.164H115.306H115.451H115.599H115.747H115.9H116.053H116.208H116.367H116.525H116.686H116.849H117.013H117.179H117.348H117.517H117.691H117.862H118.036H118.213L118.39 4.35352H118.569H118.751H118.933L119.115 4.36671H119.299L119.487 4.37989H119.671L119.861 4.39308L120.048 4.40627L120.241 4.41945H120.431L120.623 4.43264L120.816 4.44583H121.011L121.206 4.46165L121.401 4.47484H121.599L121.797 4.48803L121.995 4.50385L122.193 4.51704L122.393 4.53286H122.594L122.794 4.54869L122.994 4.56451L123.198 4.58034L123.398 4.59616L123.601 4.61198L123.804 4.62781L124.007 4.64363L124.21 4.65946L124.416 4.67528L124.619 4.69111L124.822 4.70957L125.028 4.72539L125.231 4.74385L125.437 4.75968L125.642 4.77814L125.845 4.7966L126.051 4.81243L126.254 4.83089L126.46 4.84935L126.663 4.86781L126.866 4.88627L127.069 4.90474L127.272 4.9232L127.475 4.9443L127.678 4.96276L127.882 4.98122L128.082 5.00232L128.285 5.02078L128.486 5.04188L128.683 5.06298L128.884 5.08408L129.082 5.10254L129.282 5.12364L129.477 5.14474L129.675 5.16584L129.881 5.6353L130.076 5.65903L130.271 5.68013L130.464 5.70123L130.656 5.72497L130.846 5.74607L131.036 5.7698L131.226 5.7909L131.413 5.81464L131.6 5.83838L131.785 5.85948L131.97 5.88321L132.154 5.90695L132.333 5.93069L132.515 5.95442L132.695 5.9808L132.872 6.00453H132.948L133.024 6.01772Z" fill="#FB9500"/>
<path d="M58.8501 26.3754C58.5302 26.3358 58.2143 26.2687 57.9059 26.175C56.4105 25.7161 55.8725 24.8405 54.1503 25.8242C54.2929 25.6247 54.4719 25.4538 54.6777 25.3205C54.432 25.3906 54.1758 25.4174 53.9208 25.3996C55.3055 24.8088 54.6777 24.1838 54.8861 22.8598C54.9299 22.5697 55.0069 22.2857 55.1156 22.0132C54.4325 22.8783 53.905 22.9758 53.4197 23.3161C51.9769 24.1929 50.4379 24.9009 48.8333 25.426C32.5869 30.5267 0.647949 37.9035 0.647949 37.9035C24.3503 35.4692 42.8701 31.2757 55.0971 27.4515C56.8246 27.1218 57.4417 26.6445 58.8501 26.3754Z" fill="#FB9500"/>
<path d="M58.7674 19.2676C58.5938 19.6578 58.462 20.0654 58.3744 20.4834C57.9867 22.3296 58.5248 23.4901 55.2544 25.0303C55.5181 24.2707 55.2333 23.4136 55.3652 22.567C55.4159 22.2086 55.5555 21.8685 55.7713 21.5779C56.399 20.7656 57.8575 20.4228 58.7674 19.2676Z" fill="#FB9500"/>
<path d="M63.3851 24.3869C61.8686 24.6796 60.84 25.8744 59.7797 26.0616C59.3372 26.1336 58.8836 26.0928 58.461 25.943C57.6698 25.6792 56.992 25.1517 56.2192 25.0304C59.2892 22.9205 60.1569 23.7856 62.1402 24.2155C62.55 24.3051 62.9663 24.3624 63.3851 24.3869Z" fill="#FB9500"/>
<path d="M62.4759 16.5249C62.2577 16.9588 62.1091 17.4242 62.0354 17.9043C61.7453 19.7504 62.3678 21.2327 58.6411 22.7544C58.9365 21.987 58.8969 20.8661 59.2002 19.877C59.3113 19.5151 59.4903 19.1776 59.7277 18.8827C60.3739 18.1232 61.5159 17.6194 62.4759 16.5249Z" fill="#FB9500"/>
<path d="M67.7002 21.5595C65.738 22.0527 65.0971 23.2422 64.0079 23.5956C63.7122 23.6845 63.4039 23.7246 63.0953 23.7143C61.956 23.6721 60.8799 23.0154 59.2764 23.1103C63.8021 20.1564 64.4193 21.3828 66.6611 21.5595C67.007 21.5857 67.3543 21.5857 67.7002 21.5595Z" fill="#FB9500"/>
<path d="M66.0572 14.2173C65.8447 14.6398 65.6988 15.0926 65.6247 15.5597C65.3214 17.4059 65.9728 18.9145 62.2251 20.4416C62.5389 19.6266 62.4704 18.3765 62.8607 17.3558C62.9621 17.0767 63.1091 16.8165 63.2959 16.5857C63.9473 15.8156 65.084 15.3092 66.0572 14.2173Z" fill="#FB9500"/>
<path d="M71.6745 18.7793C69.4195 19.4096 69.0186 20.4356 67.9452 20.8628C67.8052 20.9163 67.6604 20.9561 67.5127 20.9815C66.194 21.2453 64.9386 20.3934 63.0845 20.731C67.3043 17.5503 68.2722 18.7265 70.4692 18.8347C70.8718 18.8535 71.2753 18.8349 71.6745 18.7793Z" fill="#FB9500"/>
<path d="M69.3946 11.9834C69.173 12.4681 69.0365 12.9874 68.9911 13.5184C68.8381 15.2142 69.384 16.4775 65.8262 18.0837C66.0899 17.2925 66.0055 16.132 66.2983 15.1272C66.3896 14.7882 66.5444 14.4695 66.7545 14.1883C67.3928 13.3944 68.4741 13.1122 69.3946 11.9834Z" fill="#FB9500"/>
<path d="M75.5026 16.2033C73.3109 16.7308 72.8652 17.7146 71.8102 18.1418C71.6132 18.2185 71.4078 18.2716 71.1984 18.3001C69.943 18.482 68.7403 17.8438 66.9653 18.1656C71.143 15.0165 72.0977 16.14 74.2366 16.264C74.6596 16.2872 75.0838 16.2669 75.5026 16.2033Z" fill="#FB9500"/>
<path d="M72.1391 10.7622C71.9245 11.1544 71.7765 11.5795 71.7013 12.0202C71.4798 13.2625 71.7989 14.1302 69.2881 15.6572C69.5518 14.9108 69.3989 14.0247 69.5967 13.1781C69.678 12.8118 69.8372 12.4673 70.0635 12.1679C70.6912 11.3714 71.4666 11.3794 72.1391 10.7622Z" fill="#FB9500"/>
<path d="M76.1006 9.18994C75.7446 9.51778 75.4302 9.88802 75.1643 10.2924C74.1832 11.8273 74.7424 12.8559 71.8228 13.9847C72.1946 13.2885 72.1076 12.4392 72.374 11.6638C72.4929 11.3042 72.7006 10.9803 72.9779 10.7223C73.7296 10.0392 75.3305 9.68314 76.1006 9.18994Z" fill="#FB9500"/>
<path d="M79.5968 13.769C77.1334 14.3387 76.7088 15.151 75.6407 15.5835C75.4702 15.6473 75.2934 15.6924 75.1132 15.718C73.7813 15.929 72.3756 15.1721 70.561 15.5018C74.8679 12.2551 76.1312 13.7162 78.5075 13.8217C78.8715 13.8385 79.2362 13.8208 79.5968 13.769Z" fill="#FB9500"/>
<path d="M79.5895 8.0083C79.3179 8.21857 79.0671 8.45438 78.8405 8.71249C77.5745 10.1842 78.888 10.9042 74.8105 12.3679C75.2589 11.6796 75.6018 10.6615 76.1794 9.8202C76.3928 9.50143 76.6534 9.21688 76.9521 8.97623C77.7592 8.36962 78.6532 8.36171 79.5895 8.0083Z" fill="#FB9500"/>
<path d="M83.9148 11.8405C81.8471 12.405 81.4304 12.9324 80.3227 13.2674C80.0262 13.3491 79.7203 13.3917 79.4128 13.394C78.1073 13.4256 76.6488 12.9166 74.9688 13.0749C79.6106 10.1737 80.5416 11.6032 82.9442 11.8247C83.2669 11.8545 83.5914 11.8597 83.9148 11.8405Z" fill="#FB9500"/>
<path d="M83.7433 6.63965C83.4862 6.84012 83.2422 7.05683 83.0127 7.28845C81.6624 8.69682 82.8861 9.05023 78.7744 10.5272C79.0091 9.70958 79.1436 9.01331 79.7924 8.36187C80.0015 8.15816 80.2313 7.97695 80.4782 7.8212C81.2905 7.19878 82.807 6.97987 83.7433 6.63965Z" fill="#FB9500"/>
<path d="M88.0576 10.245C85.9345 10.7276 85.8659 10.9228 84.7608 11.2577C84.5451 11.3195 84.323 11.3558 84.0988 11.3658C82.7801 11.4423 81.4087 10.7566 79.6152 10.9201C83.2206 8.67042 84.592 10.1025 87.2057 10.245C87.4894 10.2624 87.7739 10.2624 88.0576 10.245Z" fill="#FB9500"/>
<path d="M87.8991 5.77197C87.6749 5.94868 87.4797 6.10692 87.3083 6.2467C85.528 7.70519 86.103 7.54167 82.8247 8.76806C83.0673 7.92937 83.2335 7.56013 83.9403 7.02474C84.117 6.89023 84.3254 6.74781 84.5786 6.58693C85.3909 5.97242 86.9628 6.1122 87.8991 5.77197Z" fill="#FB9500"/>
<path d="M91.8736 9.01077C89.9034 9.38265 90.1645 9.42221 89.0595 9.75716C88.8555 9.81348 88.6458 9.84622 88.4344 9.85474C86.91 9.9365 84.8238 9.11891 83.0093 9.29034C88.0441 6.6292 88.6217 8.88945 91.3329 9.01077C91.5129 9.0241 91.6936 9.0241 91.8736 9.01077Z" fill="#FB9500"/>
<path d="M91.8061 5.25271L91.3762 5.56392C88.6808 7.49713 88.6095 6.72174 86.439 7.61318C87.3779 6.80086 87.7867 6.51338 88.2403 6.08349C88.359 5.97272 88.4803 5.8514 88.6148 5.71161C89.2821 5.07073 90.9041 5.12084 91.8061 5.25271Z" fill="#FB9500"/>
<path d="M94.5414 8.31731C94.2064 8.35159 94.0271 8.35423 93.8662 8.36478C93.6194 8.3845 93.3758 8.4341 93.1409 8.51248C92.4827 8.72475 91.7757 8.73303 91.1128 8.53621C89.955 8.27247 88.7391 7.70016 87.4204 7.82148C90.6961 6.57662 92.0042 6.9907 92.9115 7.534C93.1146 7.65268 93.2965 7.78192 93.4812 7.9006C93.7183 8.06482 93.98 8.19035 94.2566 8.27247C94.3493 8.29889 94.445 8.31394 94.5414 8.31731Z" fill="#FB9500"/>
<path d="M94.9866 4.9388L94.7861 5.10232C92.7896 6.68476 92.5153 6.02014 90.5874 6.61883C91.1398 6.25444 91.6724 5.86091 92.183 5.43991L92.2701 5.36343C92.8899 4.79111 94.2376 4.75682 94.9866 4.9388Z" fill="#FB9500"/>
<path d="M97.834 7.66077C97.3514 7.71088 96.9637 7.70296 96.5285 7.75835C96.275 7.79076 96.0245 7.84368 95.7795 7.91659L95.7162 7.93769H95.7004C95.554 7.98964 95.4015 8.02244 95.2468 8.03528C94.8368 8.07002 94.4269 7.968 94.081 7.74516C93.8859 7.63439 93.696 7.50252 93.4929 7.37856C92.9198 6.97628 92.2229 6.78945 91.5254 6.85108C95.5026 5.65634 95.8586 7.11482 97.4121 7.56318C97.5497 7.60768 97.6909 7.64033 97.834 7.66077Z" fill="#FB9500"/>
<path d="M98.0787 4.53797C97.9955 4.63044 97.9074 4.71847 97.815 4.80171C96.6044 5.88041 95.5099 5.63777 93.9775 6.12041C94.8663 5.4848 94.84 5.59293 95.3411 5.15776C95.3943 5.10934 95.4527 5.06689 95.5151 5.03117C96.1218 4.64611 97.3139 4.53006 98.0787 4.53797Z" fill="#FB9500"/>
<path d="M102.188 4.23453C102.093 4.33614 101.991 4.43047 101.882 4.51673C100.563 5.55587 98.6671 5.08641 97.1348 5.5585C98.0499 5.0152 97.9893 5.12861 98.435 4.74618L98.4851 4.70135C99.0073 4.22925 101.341 4.22662 102.188 4.23453Z" fill="#FB9500"/>
<path d="M100.652 7.1225C100.04 7.1858 99.6099 7.14097 98.9426 7.3335C98.6981 7.42227 98.436 7.45209 98.1778 7.42053C97.0727 7.28075 96.0916 6.1282 94.6885 6.26007C98.1857 5.20511 98.8186 6.63986 100.245 7.0513C100.379 7.0866 100.514 7.11043 100.652 7.1225Z" fill="#FB9500"/>
<path d="M103.737 6.58183C103.223 6.68733 102.355 6.68205 101.714 6.82447C101.532 6.86646 101.347 6.8877 101.16 6.88777C99.7624 6.88777 98.9131 5.64292 97.605 5.78534C100.034 5.155 101.506 5.6772 102.584 6.13611C102.938 6.28381 103.252 6.42886 103.542 6.52117C103.605 6.54491 103.671 6.56601 103.737 6.58183Z" fill="#FB9500"/>
<path d="M106.068 4.31623L106.018 4.36634C104.699 5.68505 102.924 4.83053 100.994 5.32108C101.959 4.85954 101.769 5.0046 102.27 4.56679C102.298 4.54211 102.328 4.52004 102.36 4.50085C102.982 4.11843 104.733 4.37162 106.068 4.31623Z" fill="#FB9500"/>
<path d="M107.143 6.12042C106.969 6.12042 106.764 6.12042 106.524 6.14152C106.098 6.16489 105.674 6.21687 105.255 6.29713C104.991 6.34724 104.728 6.4079 104.464 6.48438C104.315 6.51008 104.163 6.50196 104.018 6.46065C103.693 6.35933 103.378 6.22869 103.077 6.07031C102.813 5.94372 102.525 5.80657 102.23 5.69844C101.789 5.51769 101.312 5.44272 100.837 5.47953C101.988 5.32217 103.153 5.30004 104.308 5.4136C104.87 5.4728 105.426 5.57329 105.972 5.71426C106.347 5.81269 106.714 5.93605 107.072 6.0835C107.095 6.09707 107.119 6.1094 107.143 6.12042Z" fill="#FB9500"/>
<path d="M110.366 4.31654C110.102 4.47215 109.659 4.63303 109.416 4.75699C108.641 5.14996 108.527 5.07875 107.644 5.04183C106.704 5.0093 105.763 5.0676 104.835 5.21589C105.534 4.92051 105.75 4.95215 106.251 4.50643C106.388 4.41539 106.544 4.35759 106.708 4.33764C107.485 4.26373 108.268 4.25667 109.047 4.31654H109.089C109.519 4.31654 109.933 4.33764 110.286 4.31654H110.366Z" fill="#FB9500"/>
<path d="M110.511 5.76135H110.329C109.789 5.77982 108.924 5.86421 108.156 5.95916L107.929 5.99081H107.805C107.349 5.99081 107.014 5.81147 106.524 5.6374C106.036 5.46205 105.527 5.35725 105.01 5.32618C105.911 5.22193 106.82 5.19018 107.726 5.23124C108.668 5.26863 109.599 5.44642 110.488 5.75872L110.511 5.76135Z" fill="#FB9500"/>
</svg>
