<svg width="41" height="42" viewBox="0 0 41 42" fill="none" xmlns="http://www.w3.org/2000/svg">
<path fill-rule="evenodd" clip-rule="evenodd" d="M3.83398 2.1875C3.14363 2.1875 2.58398 2.77513 2.58398 3.5C2.58398 4.22487 3.14363 4.8125 3.83398 4.8125H7.16732V18.375C7.16732 23.7372 7.16732 26.4183 8.841 28.0842C10.5147 29.75 13.2084 29.75 18.5958 29.75H19.2507V35.9389L16.6083 37.3261C15.9908 37.6502 15.7406 38.4386 16.0493 39.0869C16.358 39.7353 17.1089 39.9982 17.7263 39.6739L20.5007 38.2174L23.275 39.6739C23.8925 39.9982 24.6433 39.7353 24.952 39.0869C25.2608 38.4386 25.0105 37.6502 24.393 37.3261L21.7507 35.9389V29.75H22.4055C27.7928 29.75 30.4867 29.75 32.1603 28.0842C33.834 26.4183 33.834 23.7372 33.834 18.375V4.8125H37.1673C37.8577 4.8125 38.4173 4.22487 38.4173 3.5C38.4173 2.77513 37.8577 2.1875 37.1673 2.1875H3.83398ZM26.3845 13.9469C26.8727 14.4595 26.8727 15.2905 26.3845 15.8031L24.1892 18.1083C23.9475 18.3622 23.6861 18.6368 23.436 18.8373C23.1427 19.0722 22.7232 19.3251 22.1673 19.3251C21.6115 19.3251 21.192 19.0722 20.8987 18.8373C20.6485 18.6368 20.3871 18.3622 20.1455 18.1083L19.1287 17.0405C19.0118 16.9179 18.9172 16.8186 18.834 16.734C18.7508 16.8186 18.6562 16.9179 18.5393 17.0405L16.3845 19.303C15.8964 19.8156 15.1049 19.8156 14.6168 19.303C14.1286 18.7904 14.1286 17.9595 14.6168 17.4469L16.8122 15.1417C17.0538 14.8878 17.3152 14.6132 17.5653 14.4127C17.8587 14.1778 18.2782 13.9249 18.834 13.9249C19.3898 13.9249 19.8093 14.1778 20.1026 14.4127C20.3528 14.6132 20.6142 14.8877 20.8557 15.1416L21.8727 16.2095C21.9895 16.3321 22.0842 16.4314 22.1673 16.516C22.2505 16.4314 22.3451 16.3321 22.462 16.2095L24.6168 13.9469C25.105 13.4344 25.8963 13.4344 26.3845 13.9469Z" fill="#FB9500"/>
</svg>
