<svg width="32" height="58" viewBox="0 0 32 58" fill="none" xmlns="http://www.w3.org/2000/svg">
<path d="M31.2061 28.1473C28.8691 34.762 31.2061 41.5233 29.5034 46.1329C27.0663 52.4412 20.2558 52.9275 16.8505 57.0475C14.2899 36.404 23.6611 39.4383 31.2061 28.1473ZM22.6128 43.2819C22.2322 43.9813 21.5845 44.5042 21.1372 45.1837C20.6768 45.9352 20.3229 46.7467 20.0855 47.5951C20.7552 46.5057 21.7829 45.6817 22.9934 45.2636C23.4908 45.1104 23.6611 45.8365 23.207 46.0197C22.2992 46.4574 21.5561 47.1742 21.0871 48.0647C22.3557 47.3519 23.631 46.5792 24.262 44.9372C25.0365 42.8522 23.9682 39.7714 25.0365 36.7604C21.9584 41.3701 18.2126 40.7406 18.3061 47.332C18.867 45.5667 20.2424 42.6157 22.2422 42.6224C22.319 42.6233 22.3942 42.6444 22.4603 42.6835C22.5263 42.7227 22.5809 42.7785 22.6185 42.8453C22.656 42.9122 22.6753 42.9877 22.6743 43.0644C22.6733 43.141 22.6521 43.216 22.6128 43.2819Z" fill="#FB9500"/>
<path d="M0.792496 19.8074C8.33748 31.0983 17.7019 28.0641 15.148 48.6975C11.7427 44.5709 4.92555 44.0846 2.49513 37.7763C0.799172 33.1966 3.13278 26.4254 0.792496 19.8074ZM8.16388 37.1934C8.79486 38.8321 10.0702 39.6048 11.3388 40.3176C10.8659 39.4293 10.1208 38.7151 9.21217 38.2792C8.76481 38.0894 8.92506 37.37 9.42583 37.5232C10.6382 37.9378 11.667 38.7626 12.3337 39.8546C12.0961 39.0048 11.7434 38.1913 11.2854 37.4366C10.8447 36.7704 10.1903 36.2409 9.80642 35.5414C9.76706 35.4741 9.7462 35.3976 9.74597 35.3196C9.74573 35.2417 9.76611 35.165 9.80506 35.0975C9.84401 35.0299 9.90014 34.9738 9.96779 34.9347C10.0354 34.8957 10.1122 34.8752 10.1903 34.8753C12.1934 34.8753 13.5589 37.8163 14.1198 39.5848C14.2199 32.9935 10.4674 33.623 7.38935 29.0067C8.45767 32.0076 7.39937 35.0918 8.16388 37.1934Z" fill="#FB9500"/>
<path d="M31.2061 9.2926C28.8691 15.9106 31.2061 22.6685 29.5034 27.2549C27.0663 33.5831 20.2558 34.0561 16.8505 38.1794C14.2899 17.5427 23.6611 20.5802 31.2061 9.2926ZM22.6128 24.3705C22.2322 25.0633 21.5845 25.5929 21.1372 26.2623C20.6786 27.016 20.3248 27.8283 20.0855 28.6771C20.7552 27.5876 21.7829 26.7637 22.9934 26.3456C23.4908 26.199 23.6611 26.9151 23.207 27.105C22.3006 27.5447 21.558 28.261 21.0871 29.15C22.3557 28.4373 23.631 27.6612 24.262 26.0259C25.0365 23.9342 23.9682 20.86 25.0365 17.8424C21.9584 22.4487 18.2126 21.8392 18.3061 28.4206C18.867 26.6487 20.2424 23.6977 22.2422 23.711C22.319 23.712 22.3942 23.733 22.4603 23.7722C22.5263 23.8113 22.5809 23.8671 22.6185 23.934C22.656 24.0008 22.6753 24.0764 22.6743 24.153C22.6733 24.2296 22.6521 24.3047 22.6128 24.3705Z" fill="#FB9500"/>
<path d="M0.792496 0.952515C8.33748 12.2401 17.7019 9.20923 15.148 29.8394C11.7427 25.716 4.92555 25.2297 2.49513 18.9148C0.799172 14.3318 3.13278 7.57054 0.792496 0.952515ZM8.16388 18.3519C8.79486 19.9839 10.0702 20.7633 11.3388 21.4761C10.8656 20.5903 10.1235 19.8768 9.21884 19.4377C8.76481 19.2478 8.92506 18.5284 9.42583 18.6783C10.6359 19.0971 11.6634 19.9209 12.3337 21.0098C12.0983 20.1612 11.7455 19.3496 11.2854 18.5984C10.8447 17.9322 10.1903 17.406 9.80642 16.7032C9.76706 16.6359 9.7462 16.5594 9.74597 16.4814C9.74573 16.4035 9.76611 16.3268 9.80506 16.2593C9.84401 16.1917 9.90014 16.1355 9.96779 16.0965C10.0354 16.0575 10.1122 16.037 10.1903 16.0371C12.1934 16.0371 13.5589 18.9781 14.1231 20.75C14.2199 14.1553 10.4741 14.7848 7.38935 10.1685C8.45767 13.1827 7.39937 16.2602 8.16388 18.3519Z" fill="#FB9500"/>
</svg>
