<svg width="24" height="20" viewBox="0 0 24 20" fill="none" xmlns="http://www.w3.org/2000/svg">
<path fill-rule="evenodd" clip-rule="evenodd" d="M7.548 19.5999C16.6044 19.5999 21.558 12.2122 21.558 5.80635C21.558 5.59605 21.558 5.38733 21.5436 5.17939C22.5072 4.49414 23.3388 3.64333 24 2.66982C23.1024 3.06207 22.1484 3.3193 21.1728 3.43271C22.2 2.82663 22.9692 1.87444 23.3376 0.750877C22.3704 1.31561 21.3132 1.71417 20.2104 1.92803C18.3456 -0.0237387 15.2268 -0.118302 13.2432 1.71767C11.9652 2.90149 11.4216 4.66653 11.8188 6.3501C7.86 6.15398 4.1712 4.31331 1.6704 1.28525C0.3636 3.50046 1.032 6.33329 3.1956 7.75576C2.412 7.73331 1.6452 7.5256 0.96 7.1499V7.21142C0.9612 9.51881 2.6136 11.5056 4.9104 11.9628C4.1856 12.1577 3.4248 12.186 2.688 12.0454C3.3324 14.0208 5.1816 15.3738 7.2876 15.4128C5.544 16.762 3.39 17.4946 1.1724 17.4923C0.7812 17.4911 0.39 17.4686 0 17.4226C2.2524 18.845 4.872 19.5999 7.548 19.5964" fill="#363636"/>
</svg>
