<svg width="38" height="39" viewBox="0 0 57 56" fill="none" xmlns="http://www.w3.org/2000/svg">
<path d="M36.6673 17.6835C36.6673 22.1148 33.011 25.7069 28.5007 25.7069C23.9903 25.7069 20.334 22.1148 20.334 17.6835C20.334 13.2523 23.9903 9.66016 28.5007 9.66016C33.011 9.66016 36.6673 13.2523 36.6673 17.6835Z" fill="#FB9500"/>
<path d="M42.5 38.3154C42.5 42.7466 36.232 46.3388 28.5 46.3388C20.768 46.3388 14.5 42.7466 14.5 38.3154C14.5 33.8842 20.768 30.292 28.5 30.292C36.232 30.292 42.5 33.8842 42.5 38.3154Z" fill="#FB9500"/>
<path d="M17.1183 11.9532C17.5324 11.9532 17.9366 11.9932 18.327 12.0692C17.376 13.7286 16.8335 15.6442 16.8335 17.6842C16.8335 19.6746 17.3499 21.5465 18.2582 23.1777C17.8892 23.2452 17.5081 23.2806 17.1183 23.2806C13.818 23.2806 11.1426 20.7449 11.1426 17.6169C11.1426 14.489 13.818 11.9532 17.1183 11.9532Z" fill="#FB9500"/>
<path d="M13.2098 44.0148C11.8847 42.4585 10.9993 40.5487 10.9993 38.3159C10.9993 36.1514 11.8313 34.2905 13.0895 32.7607C8.64525 33.0996 5.16602 35.4875 5.16602 38.3833C5.16602 41.3061 8.70638 43.7118 13.2098 44.0148Z" fill="#FB9500"/>
<path d="M40.1672 17.6841C40.1672 19.6745 39.6508 21.5464 38.7424 23.1775C39.1116 23.2451 39.4926 23.2805 39.8825 23.2805C43.1828 23.2805 45.8582 20.7447 45.8582 17.6168C45.8582 14.4888 43.1828 11.9531 39.8825 11.9531C39.4683 11.9531 39.0642 11.993 38.6738 12.069C39.6247 13.7285 40.1672 15.6441 40.1672 17.6841Z" fill="#FB9500"/>
<path d="M43.7891 44.0148C48.2924 43.7118 51.8328 41.3061 51.8328 38.3833C51.8328 35.4875 48.3535 33.0996 43.9092 32.7607C45.1674 34.2905 45.9994 36.1514 45.9994 38.3159C45.9994 40.5487 45.1142 42.4585 43.7891 44.0148Z" fill="#FB9500"/>
</svg>
