<svg width="24" height="18" viewBox="0 0 24 18" fill="none" xmlns="http://www.w3.org/2000/svg">
<path fill-rule="evenodd" clip-rule="evenodd" d="M9.58613 12.1027V5.36852C11.9768 6.49344 13.8283 7.58013 16.0181 8.75173C14.212 9.75338 11.9768 10.8773 9.58613 12.1027ZM22.9092 2.01931C22.4968 1.47599 21.794 1.05307 21.0457 0.913056C18.8463 0.495396 5.12518 0.494208 2.92698 0.913056C2.32693 1.02554 1.7926 1.29744 1.3336 1.71989C-0.600435 3.51497 0.00559941 13.1414 0.471777 14.7007C0.667809 15.3757 0.921228 15.8625 1.24038 16.182C1.65157 16.6044 2.21456 16.8953 2.86123 17.0257C4.67214 17.4003 14.0016 17.6098 21.0074 17.082C21.6529 16.9695 22.2243 16.6693 22.6749 16.2289C24.4631 14.441 24.3412 4.27393 22.9092 2.01931Z" fill="#363636"/>
</svg>
